<svg width="952" height="900" viewBox="0 0 952 900" fill="none" xmlns="http://www.w3.org/2000/svg">
<rect width="952" height="900" fill="#C00000"/>
<rect width="952" height="900" fill="url(#paint0_linear)"/>
<path d="M222.597 657C98.1812 551.4 22.3591 568 0 589.5V233.5C771.935 469.1 727.084 176 608.167 0H952V304.5C858.589 665.7 589.452 757.333 466.559 758C367.186 758 262.512 690.667 222.597 657Z" fill="#C00000"/>
<path d="M222.597 657C98.1812 551.4 22.3591 568 0 589.5V233.5C771.935 469.1 727.084 176 608.167 0H952V304.5C858.589 665.7 589.452 757.333 466.559 758C367.186 758 262.512 690.667 222.597 657Z" fill="url(#paint1_linear)"/>
<path d="M118.16 145.08C124.56 145.08 130.107 145.88 134.8 147.48C139.493 148.973 143.547 151.107 146.96 153.88C153.68 159.32 158.053 166.947 160.08 176.76L139.92 180.44C138.213 175 135.547 170.627 131.92 167.32C128.4 163.907 123.973 162.2 118.64 162.2C111.387 162.2 105.52 165.24 101.04 171.32C96.24 177.933 93.84 187.107 93.84 198.84C93.84 210.467 95.9733 219.587 100.24 226.2C104.507 232.707 110.32 235.96 117.68 235.96C125.04 235.96 130.587 234.2 134.32 230.68C138.053 227.053 139.92 222.413 139.92 216.76H160.24C160.24 228.387 156.507 237.4 149.04 243.8C141.68 250.093 131.547 253.24 118.64 253.24C104.88 253.24 93.9467 248.44 85.84 238.84C77.6267 229.027 73.52 215.693 73.52 198.84C73.52 181.773 77.7333 168.44 86.16 158.84C94.2667 149.667 104.933 145.08 118.16 145.08ZM259.406 179C259.406 186.36 257.326 192.653 253.166 197.88C249.006 203.107 243.033 206.733 235.246 208.76L263.086 251H238.446L215.566 210.52H201.166V251H182.286V147.16H220.686C232.953 147.16 242.5 150.093 249.326 155.96C256.046 161.613 259.406 169.293 259.406 179ZM218.926 197.88C225.86 197.88 231.086 196.333 234.606 193.24C238.126 190.04 239.886 185.88 239.886 180.76C239.886 175.533 238.286 171.373 235.086 168.28C231.886 165.08 227.086 163.48 220.686 163.48H201.166V197.88H218.926ZM312.295 147.16L340.775 208.92L369.255 147.16H395.335V251H376.295V172.12L346.855 239.64H334.535L304.135 169.88V251H285.255V147.16H312.295ZM135.44 362.8C133.733 353.733 127.333 349.2 116.24 349.2C110.8 349.2 106.533 350.32 103.44 352.56C100.453 354.693 98.96 357.307 98.96 360.4C98.96 363.493 99.92 365.947 101.84 367.76C103.867 369.467 106.96 371.067 111.12 372.56L133.68 381.36C141.36 384.347 147.28 388.133 151.44 392.72C155.6 397.2 157.68 402.853 157.68 409.68C157.68 419.067 154.16 426.533 147.12 432.08C140.08 437.52 130.053 440.24 117.04 440.24C105.52 440.24 96.1867 437.413 89.04 431.76C81.04 425.573 76.8267 416.827 76.4 405.52H95.12C95.12 414.053 99.5467 419.44 108.4 421.68C111.067 422.427 114.587 422.8 118.96 422.8C123.333 422.8 127.387 421.733 131.12 419.6C134.853 417.36 136.72 414.427 136.72 410.8C136.72 407.067 135.707 404.24 133.68 402.32C131.653 400.293 128.347 398.427 123.76 396.72L103.12 388.56C95.12 385.467 88.9867 381.84 84.72 377.68C80.4533 373.52 78.32 367.76 78.32 360.4C78.32 351.76 81.68 344.933 88.4 339.92C95.2267 334.693 104.453 332.08 116.08 332.08C127.813 332.08 136.827 334.8 143.12 340.24C149.52 345.573 153.2 353.093 154.16 362.8H135.44ZM192.511 360.24L211.231 416.24L227.551 360.24H246.751L216.991 452.08C213.898 461.36 210.111 468.027 205.631 472.08C201.258 476.133 195.658 478.16 188.831 478.16C181.898 478.16 174.965 476.453 168.031 473.04V456.4C173.578 459.92 179.178 461.68 184.831 461.68C188.565 461.68 191.605 460.187 193.951 457.2C196.405 454.213 198.378 450.32 199.871 445.52L202.271 438L171.071 360.24H192.511ZM274.096 414.32C274.31 421.68 279.696 425.36 290.256 425.36C294.31 425.36 297.616 424.507 300.176 422.8C302.843 420.987 304.176 418.907 304.176 416.56C304.176 414.213 303.376 412.4 301.776 411.12C300.176 409.84 297.67 408.667 294.256 407.6L277.296 401.52C264.71 397.147 258.416 390 258.416 380.08C258.416 373.467 261.35 368.187 267.216 364.24C273.19 360.187 281.136 358.16 291.056 358.16C301.083 358.16 308.763 360.347 314.096 364.72C319.536 369.093 322.363 374.587 322.576 381.2H304.816C304.603 378.64 303.376 376.613 301.136 375.12C298.896 373.627 295.696 372.88 291.536 372.88C287.376 372.88 284.123 373.733 281.776 375.44C279.536 377.04 278.416 378.907 278.416 381.04C278.416 384.773 281.563 387.547 287.856 389.36L306.256 396.24C312.336 398.267 316.976 400.88 320.176 404.08C323.483 407.173 325.136 411.227 325.136 416.24C325.136 422.64 322.096 428.187 316.016 432.88C309.723 437.787 301.403 440.24 291.056 440.24C280.71 440.24 272.39 438 266.096 433.52C259.803 428.933 256.603 422.533 256.496 414.32H274.096ZM391.751 436.08C384.711 438.853 379.165 440.24 375.111 440.24C371.058 440.24 367.485 439.76 364.391 438.8C361.405 437.84 358.738 436.4 356.391 434.48C351.485 430.107 349.031 424.08 349.031 416.4V372.88H338.151V360.24H349.031V339.76H367.911V360.24H389.031V372.88H367.911V415.76C367.911 422.16 370.951 425.36 377.031 425.36C380.125 425.36 384.125 424.507 389.031 422.8L391.751 436.08ZM465.276 369.52C467.943 372.933 469.916 376.88 471.196 381.36C472.583 385.84 473.276 389.947 473.276 393.68C473.276 397.413 473.063 400.773 472.636 403.76H422.396C422.61 410.053 424.156 415.173 427.036 419.12C429.916 423.067 434.29 425.04 440.156 425.04C447.943 425.04 452.583 421.627 454.076 414.8H473.116C471.836 422.587 468.263 428.72 462.396 433.2C456.316 437.893 448.903 440.24 440.156 440.24C429.916 440.24 421.33 436.507 414.396 429.04C407.25 421.253 403.676 411.28 403.676 399.12C403.676 386.64 407.25 376.613 414.396 369.04C421.223 361.787 429.81 358.16 440.156 358.16C450.93 358.16 459.303 361.947 465.276 369.52ZM440.316 373.2C434.983 373.2 430.823 374.96 427.836 378.48C424.85 381.893 423.09 386.32 422.556 391.76H455.676C455.676 383.333 453.01 377.68 447.676 374.8C445.65 373.733 443.196 373.2 440.316 373.2ZM565 374.96C570.013 363.76 578.813 358.16 591.4 358.16C600.68 358.16 607.88 361.307 613 367.6C617.907 373.573 620.36 381.893 620.36 392.56V438H601.32V392.56C601.32 386.8 599.933 382.48 597.16 379.6C594.387 376.613 590.493 375.12 585.48 375.12C580.467 375.12 576.36 377.307 573.16 381.68C569.96 386.053 568.253 392.667 568.04 401.52V438H549.16V392.56C549.16 386.8 547.773 382.48 545 379.6C542.227 376.613 538.333 375.12 533.32 375.12C528.307 375.12 523.987 377.36 520.36 381.84C516.84 386.32 514.973 393.04 514.76 402V438H495.88V360.24H512.36L514.44 373.68C519.56 363.333 527.773 358.16 539.08 358.16C545.587 358.16 550.973 359.653 555.24 362.64C559.613 365.627 562.867 369.733 565 374.96Z" fill="white"/>
<path d="M952 744C919.479 845.122 773.199 890.801 704.125 901H952V744Z" fill="#C00000"/>
<path d="M952 744C919.479 845.122 773.199 890.801 704.125 901H952V744Z" fill="url(#paint2_linear)"/>
<defs>
<linearGradient id="paint0_linear" x1="-221.705" y1="754" x2="816.387" y2="305.549" gradientUnits="userSpaceOnUse">
<stop stop-color="#E9CA9A"/>
<stop offset="1" stop-color="white" stop-opacity="0"/>
</linearGradient>
<linearGradient id="paint1_linear" x1="476" y1="0" x2="476" y2="758" gradientUnits="userSpaceOnUse">
<stop stop-color="#E9CA9A"/>
<stop offset="1" stop-color="white" stop-opacity="0"/>
</linearGradient>
<linearGradient id="paint2_linear" x1="809.224" y1="1002.32" x2="850.82" y2="712.033" gradientUnits="userSpaceOnUse">
<stop stop-color="#E9CA9A"/>
<stop offset="1" stop-color="white" stop-opacity="0"/>
</linearGradient>
</defs>
</svg>
