<svg width="292" height="65" viewBox="0 0 292 65" fill="none" xmlns="http://www.w3.org/2000/svg">
<path d="M6.70508 13.0176L6.87598 17.1191C9.58757 13.929 13.2448 12.334 17.8477 12.334C23.0202 12.334 26.5407 14.3164 28.4092 18.2812C29.6396 16.5039 31.2347 15.0684 33.1943 13.9746C35.1768 12.8809 37.5124 12.334 40.2012 12.334C48.3132 12.334 52.4375 16.6292 52.5742 25.2197V50H46.251V25.5957C46.251 22.9525 45.6471 20.9814 44.4395 19.6826C43.2318 18.361 41.2038 17.7002 38.3555 17.7002C36.0085 17.7002 34.0602 18.4066 32.5107 19.8193C30.9613 21.2093 30.0612 23.0892 29.8105 25.459V50H23.4531V25.7666C23.4531 20.389 20.8213 17.7002 15.5576 17.7002C11.4105 17.7002 8.57357 19.4661 7.04688 22.998V50H0.723633V13.0176H6.70508ZM60.4697 31.167C60.4697 27.5439 61.1761 24.2855 62.5889 21.3916C64.0244 18.4977 66.0068 16.2646 68.5361 14.6924C71.0882 13.1201 73.9935 12.334 77.252 12.334C82.2878 12.334 86.3551 14.0771 89.4541 17.5635C92.5758 21.0498 94.1367 25.6868 94.1367 31.4746V31.9189C94.1367 35.5192 93.4417 38.7549 92.0518 41.626C90.6846 44.4743 88.7135 46.696 86.1387 48.291C83.5866 49.8861 80.6471 50.6836 77.3203 50.6836C72.3073 50.6836 68.2399 48.9404 65.1182 45.4541C62.0192 41.9678 60.4697 37.3535 60.4697 31.6113V31.167ZM66.8271 31.9189C66.8271 36.0205 67.7728 39.3132 69.6641 41.7969C71.5781 44.2806 74.1302 45.5225 77.3203 45.5225C80.5332 45.5225 83.0853 44.2692 84.9766 41.7627C86.8678 39.2334 87.8135 35.7015 87.8135 31.167C87.8135 27.111 86.8451 23.8298 84.9082 21.3232C82.9941 18.7939 80.4421 17.5293 77.252 17.5293C74.1302 17.5293 71.6123 18.7712 69.6982 21.2549C67.7842 23.7386 66.8271 27.2933 66.8271 31.9189ZM113.722 41.4209L122.882 13.0176H129.342L116.08 50H111.261L97.8623 13.0176H104.322L113.722 41.4209ZM150.294 50.6836C145.281 50.6836 141.202 49.043 138.058 45.7617C134.913 42.4577 133.341 38.0485 133.341 32.5342V31.3721C133.341 27.7035 134.036 24.4336 135.426 21.5625C136.839 18.6686 138.798 16.4128 141.305 14.7949C143.834 13.1543 146.568 12.334 149.508 12.334C154.316 12.334 158.053 13.9176 160.719 17.085C163.385 20.2523 164.718 24.7868 164.718 30.6885V33.3203H139.664C139.755 36.9661 140.815 39.917 142.843 42.1729C144.894 44.4059 147.491 45.5225 150.636 45.5225C152.869 45.5225 154.76 45.0667 156.31 44.1553C157.859 43.2438 159.215 42.0361 160.377 40.5322L164.239 43.54C161.14 48.3024 156.492 50.6836 150.294 50.6836ZM149.508 17.5293C146.956 17.5293 144.814 18.4635 143.082 20.332C141.35 22.1777 140.279 24.7754 139.869 28.125H158.395V27.6465C158.212 24.4336 157.346 21.9499 155.797 20.1953C154.247 18.418 152.151 17.5293 149.508 17.5293ZM212.262 46.3428C209.801 49.2367 206.189 50.6836 201.427 50.6836C197.485 50.6836 194.477 49.5443 192.403 47.2656C190.353 44.9642 189.316 41.569 189.293 37.0801V13.0176H195.616V36.9092C195.616 42.5146 197.895 45.3174 202.452 45.3174C207.283 45.3174 210.496 43.5173 212.091 39.917V13.0176H218.414V50H212.398L212.262 46.3428ZM259.293 31.9189C259.293 37.5472 258.006 42.0817 255.431 45.5225C252.856 48.9632 249.369 50.6836 244.972 50.6836C240.483 50.6836 236.951 49.2594 234.376 46.4111V64.2188H228.053V13.0176H233.829L234.137 17.1191C236.712 13.929 240.289 12.334 244.869 12.334C249.312 12.334 252.822 14.0088 255.396 17.3584C257.994 20.708 259.293 25.3678 259.293 31.3379V31.9189ZM252.97 31.2012C252.97 27.0312 252.081 23.7386 250.304 21.3232C248.526 18.9079 246.088 17.7002 242.989 17.7002C239.161 17.7002 236.29 19.3978 234.376 22.793V40.4639C236.267 43.8363 239.161 45.5225 243.058 45.5225C246.088 45.5225 248.492 44.3262 250.27 41.9336C252.07 39.5182 252.97 35.9408 252.97 31.2012Z" fill="#C00000"/>
<path d="M291.012 59.2285H285.919V0.234375H291.012V59.2285Z" fill="black"/>
</svg>
